# xmcd database file
#
# Track frame offsets:
# 150
# 9702
# 21982
# 33057
# 44202
# 56342
# 66967
# 78249
# 89567
# 101452
# 111627
# 122412
# 131587
# 142692
# 153822
# 163657
# 173702
# 185057
# 195044
# 205524
# 214327
# 223524
# 234146
# 244628
# 255993
# 266481
# 275551
# 287996
# 297208
# 307366
# 323616
# 332873
# 344666
#
# Disc length: 4784 seconds
#
# Revision: 0
# Processed by: cddbd v1.5.2PL0 Copyright (c) Steve Scherf et al.
# Submitted via: CD-Runner 2011.01
#
DISCID=e412ae21
DTITLE=Buck Owens - The Very Best Of
DYEAR=2011
DGENRE=Country
TTITLE0=Second Fiddle
TTITLE1=Under Your Spell Again
TTITLE2=Above And Beyond
TTITLE3=Excuse Me
TTITLE4=Foolin' Around
TTITLE5=Under The Influence Of Love
TTITLE6=Nobody's Fool But Yours
TTITLE7=Save The Last Dance For Me
TTITLE8=Kickin' Our Hearts Around
TTITLE9=You're For Me
TTITLE10=Act Naturally
TTITLE11=Love's Gonna Live Here
TTITLE12=My Heart Skips A Beat
TTITLE13=Together Again
TTITLE14=I Don't Care
TTITLE15=I've Got A Tiger By The Tail
TTITLE16=Cryin' Time
TTITLE17=Before You Go
TTITLE18=Only You
TTITLE19=Gonna Have Love
TTITLE20=Buckaroo
TTITLE21=Waitin' In Your Welfare Line
TTITLE22=Think Of Me
TTITLE23=Open Up Your Heart
TTITLE24=Where Does The Good Times Go
TTITLE25=Sam's Place
TTITLE26=Your Tender Loving Care
TTITLE27=It Takes People Like You
TTITLE28=How Long Will My Baby Be Gone
TTITLE29=Sweet Rosie Jones
TTITLE30=Let The  World Keep A Turnin'
TTITLE31=I've Got You On My Mind Again
TTITLE32=Big In Vegas
EXTD=
EXTT0=
EXTT1=
EXTT2=
EXTT3=
EXTT4=
EXTT5=
EXTT6=
EXTT7=
EXTT8=
EXTT9=
EXTT10=
EXTT11=
EXTT12=
EXTT13=
EXTT14=
EXTT15=
EXTT16=
EXTT17=
EXTT18=
EXTT19=
EXTT20=
EXTT21=
EXTT22=
EXTT23=
EXTT24=
EXTT25=
EXTT26=
EXTT27=
EXTT28=
EXTT29=
EXTT30=
EXTT31=
EXTT32=
PLAYORDER=
